<?xml version="1.0" standalone="no"?>
<!DOCTYPE svg PUBLIC "-//W3C//DTD SVG 20010904//EN"
 "http://www.w3.org/TR/2001/REC-SVG-20010904/DTD/svg10.dtd">
<svg version="1.0" xmlns="http://www.w3.org/2000/svg"
 width="394.000000pt" height="377.000000pt" viewBox="0 0 394.000000 377.000000"
 preserveAspectRatio="xMidYMid meet">

<g transform="translate(0.000000,377.000000) scale(0.100000,-0.100000)"
fill="#000000" stroke="none">
<path d="M0 1885 l0 -1886 493 3 492 3 50 26 c28 14 59 30 70 36 11 6 36 18
55 28 19 10 73 44 120 75 78 52 161 100 175 100 3 0 5 -7 5 -16 0 -28 23 -9
25 22 2 16 8 56 14 89 6 33 11 88 11 123 0 62 13 82 25 40 18 -62 151 -257
326 -481 15 -20 16 -19 60 24 148 147 373 334 513 429 12 8 92 67 177 130 178
132 275 226 288 279 14 54 16 84 7 99 -6 10 -3 13 10 10 24 -4 59 -57 80 -121
9 -29 38 -97 64 -152 25 -55 55 -119 65 -143 15 -36 24 -44 59 -52 43 -11 200
-67 401 -144 111 -43 316 -106 343 -106 9 0 12 389 12 1735 l0 1735 -1970 0
-1970 0 0 -1885z m2490 1511 c0 -2 -7 -6 -15 -10 -8 -3 -15 -1 -15 4 0 6 7 10
15 10 8 0 15 -2 15 -4z m440 -324 c0 -15 -2 -15 -10 -2 -13 20 -13 33 0 25 6
-3 10 -14 10 -23z m-63 -363 c-18 -10 -18 -11 0 -24 10 -7 14 -17 10 -22 -10
-9 -37 24 -37 44 0 7 10 13 23 13 20 -1 21 -1 4 -11z m-254 -115 c18 -14 54
-47 81 -73 28 -25 55 -45 62 -43 15 3 145 -399 149 -461 0 -4 5 -11 10 -15 6
-4 11 -81 12 -197 1 -188 -16 -399 -40 -500 -8 -32 -10 -93 -7 -170 6 -151 0
-240 -20 -259 -8 -8 -28 -18 -43 -22 l-29 -7 5 108 c5 103 5 106 -13 90 -10
-9 -24 -14 -29 -10 -7 4 -11 -4 -11 -20 0 -14 -4 -24 -9 -21 -11 7 -3 47 13
61 6 6 11 19 11 30 0 11 7 25 15 32 8 7 10 13 4 13 -7 0 -11 16 -10 37 1 24
-3 37 -11 36 -6 -1 -14 4 -17 12 -3 9 1 15 9 15 8 0 15 4 15 8 0 12 -71 68
-98 76 -12 4 -22 11 -22 16 0 4 -9 10 -20 13 -13 3 -18 10 -14 21 3 9 9 14 13
12 15 -9 11 62 -4 74 -19 16 -19 47 0 57 12 7 13 16 4 47 -6 21 -8 48 -5 59 3
11 0 29 -6 40 -7 14 -7 22 3 28 10 6 10 13 1 34 -10 21 -9 27 4 32 11 4 14 14
10 34 -3 16 -1 31 4 34 5 3 7 19 3 35 -4 22 -1 31 11 36 11 4 16 16 14 39 -1
18 4 40 11 49 7 8 10 20 6 26 -4 6 -3 19 1 28 8 19 16 81 17 128 0 40 -21 94
-38 94 -7 0 -25 34 -41 76 -16 41 -44 91 -62 111 -28 30 -31 38 -20 51 10 12
10 16 1 19 -7 3 -13 11 -13 18 0 7 6 16 13 18 9 4 8 8 -3 16 -10 7 -11 11 -2
11 6 0 12 5 12 10 0 6 -6 10 -14 10 -18 0 -30 31 -15 41 18 11 66 -7 102 -37z
m-123 -259 c16 -19 1 -19 -24 0 -16 12 -17 15 -4 15 8 0 21 -7 28 -15z m599
-41 c12 -15 21 -31 21 -35 0 -5 10 -31 22 -57 28 -59 28 -105 0 -207 -16 -58
-22 -109 -22 -183 0 -102 -15 -162 -41 -162 -6 0 -5 9 2 22 7 13 13 61 15 108
2 95 15 176 38 245 21 61 20 93 -4 168 -21 61 -57 107 -86 107 -8 0 -12 5 -9
10 11 18 43 10 64 -16z m-649 6 c0 -5 -2 -10 -4 -10 -3 0 -8 5 -11 10 -3 6 -1
10 4 10 6 0 11 -4 11 -10z m1 -33 c-1 -12 -15 -9 -19 4 -3 6 1 10 8 8 6 -3 11
-8 11 -12z m59 -30 c0 -19 -26 -52 -32 -41 -8 13 9 54 22 54 5 0 10 -6 10 -13z
m451 -10 c-10 -9 -11 -8 -5 6 3 10 9 15 12 12 3 -3 0 -11 -7 -18z m59 -382 c0
-26 -14 -33 -25 -15 -9 14 1 40 15 40 5 0 10 -11 10 -25z m-260 -676 c0 -6 -4
-7 -10 -4 -5 3 -10 11 -10 16 0 6 5 7 10 4 6 -3 10 -11 10 -16z"/>
<path d="M2919 159 c-13 -17 -31 -38 -39 -47 -25 -27 -43 -52 -37 -52 2 0 30
29 62 65 31 36 52 65 47 65 -5 0 -20 -14 -33 -31z"/>
</g>
</svg>
